<svg width="1710" height="1025" viewBox="0 0 1710 1025" fill="none"
  xmlns="http://www.w3.org/2000/svg">
  <g clip-path="url(#clip0_95_133)">
    <path d="M1571.76 -390.93C432.725 1106.82 -277 637.36 -277 637.36"
      stroke="url(#paint0_linear_95_133)" stroke-width="2" stroke-miterlimit="10" />
    <path
      d="M-268.556 624.866C-265.674 620.861 70.1195 867.18 658.066 516.985C821.602 419.582 1001.45 270.17 1189.47 69.2599C1310.64 -60.2109 1443.27 -208.95 1579.39 -385.439"
      stroke="url(#paint1_linear_95_133)" stroke-width="2" stroke-miterlimit="10" />
    <path
      d="M-260.114 612.358C-254.363 604.365 75.3668 870.98 660.417 533.335C827.951 436.643 1009.72 278.849 1191.84 77.576C1312.27 -55.5256 1449.13 -203.634 1587.01 -379.955"
      stroke="url(#paint2_linear_95_133)" stroke-width="2" stroke-miterlimit="10" />
    <path
      d="M-251.678 599.858C-243.045 587.86 80.9429 875.099 662.773 549.678C834.367 453.701 1017.91 287.336 1194.21 85.884C1313.93 -50.9254 1454.97 -198.317 1594.62 -374.477"
      stroke="url(#paint3_linear_95_133)" stroke-width="2" stroke-miterlimit="10" />
    <path
      d="M-243.234 587.364C-231.726 571.369 86.8054 879.558 665.117 566.037C840.841 470.764 1025.97 295.674 1196.56 94.2174C1315.62 -46.3893 1460.82 -192.993 1602.24 -368.985"
      stroke="url(#paint4_linear_95_133)" stroke-width="2" stroke-miterlimit="10" />
    <path
      d="M-234.798 574.864C-220.415 554.872 92.9463 884.337 667.468 582.387C847.385 487.838 1033.94 303.835 1198.93 102.533C1317.34 -41.9408 1466.67 -187.678 1609.87 -363.509"
      stroke="url(#paint5_linear_95_133)" stroke-width="2" stroke-miterlimit="10" />
    <path
      d="M-226.362 562.365C-209.097 538.368 99.3539 889.415 669.818 598.741C853.987 504.903 1041.8 311.837 1201.3 110.85C1319.08 -37.574 1472.53 -182.362 1617.49 -358.025"
      stroke="url(#paint6_linear_95_133)" stroke-width="2" stroke-miterlimit="10" />
    <path
      d="M-217.912 549.862C-197.777 521.877 106.015 894.808 672.179 615.093C860.655 521.978 1049.56 319.686 1203.67 119.171C1320.84 -33.2788 1478.38 -177.047 1625.12 -352.535"
      stroke="url(#paint7_linear_95_133)" stroke-width="2" stroke-miterlimit="10" />
    <path
      d="M-209.476 537.363C-186.466 505.38 112.903 900.485 674.524 631.434C867.361 539.055 1057.19 327.38 1206.03 127.483C1322.6 -29.0771 1484.23 -171.738 1632.73 -347.057"
      stroke="url(#paint8_linear_95_133)" stroke-width="2" stroke-miterlimit="10" />
    <path
      d="M-201.025 524.861C-175.139 488.882 120.013 906.452 676.886 647.787C874.132 556.166 1064.72 334.942 1208.4 135.804C1324.36 -24.9295 1490.09 -166.407 1640.36 -341.581"
      stroke="url(#paint9_linear_95_133)" stroke-width="2" stroke-miterlimit="10" />
    <path
      d="M-192.595 512.368C-163.827 472.385 127.302 912.717 679.228 664.15C880.951 573.298 1072.13 342.384 1210.76 144.129C1326.11 -20.8457 1495.94 -161.084 1647.98 -336.089"
      stroke="url(#paint10_linear_95_133)" stroke-width="2" stroke-miterlimit="10" />
    <path
      d="M-184.159 499.869C-152.516 455.889 134.797 919.24 681.58 680.497C887.815 590.453 1079.43 349.696 1213.12 152.454C1327.86 -16.8266 1501.78 -155.765 1655.59 -330.596"
      stroke="url(#paint11_linear_95_133)" stroke-width="2" stroke-miterlimit="10" />
    <path
      d="M-175.709 487.367C-141.19 439.39 142.467 926.031 683.94 696.836C894.736 607.62 1086.63 356.877 1215.5 160.762C1329.6 -12.9028 1507.64 -150.459 1663.21 -325.127"
      stroke="url(#paint12_linear_95_133)" stroke-width="2" stroke-miterlimit="10" />
    <path
      d="M-167.273 474.866C-129.873 422.885 150.291 933.065 686.287 713.19C901.691 624.825 1093.71 363.96 1217.86 169.078C1331.31 -9.03472 1513.49 -145.135 1670.84 -319.643"
      stroke="url(#paint13_linear_95_133)" stroke-width="2" stroke-miterlimit="10" />
    <path
      d="M-158.824 462.365C-118.554 406.395 158.274 940.372 688.648 729.544C908.704 642.073 1100.7 370.955 1220.23 177.409C1333 -5.22008 1519.35 -139.82 1678.46 -314.158"
      stroke="url(#paint14_linear_95_133)" stroke-width="2" stroke-miterlimit="10" />
    <path
      d="M-150.387 449.865C-107.235 389.889 166.395 947.895 690.988 745.892C915.738 659.347 1107.57 377.829 1222.59 185.718C1334.66 -1.48252 1525.19 -134.502 1686.08 -308.675"
      stroke="url(#paint15_linear_95_133)" stroke-width="2" stroke-miterlimit="10" />
    <path
      d="M-141.957 437.374C-95.9244 373.394 174.631 955.659 693.341 762.24C922.823 676.672 1114.35 384.623 1224.95 194.035C1336.28 2.20364 1531.04 -129.187 1693.7 -303.19"
      stroke="url(#paint16_linear_95_133)" stroke-width="2" stroke-miterlimit="10" />
    <path
      d="M-133.507 424.872C-84.6043 356.903 182.997 963.648 695.696 778.6C929.96 694.047 1121.02 391.337 1227.33 202.358C1337.86 5.82851 1536.9 -123.871 1701.32 -297.707"
      stroke="url(#paint17_linear_95_133)" stroke-width="2" stroke-miterlimit="10" />
    <path
      d="M-125.071 412.371C-73.2874 340.397 191.46 971.838 698.05 794.947C937.128 711.468 1127.6 397.97 1229.69 210.681C1339.4 9.39311 1542.75 -118.549 1708.95 -292.223"
      stroke="url(#paint18_linear_95_133)" stroke-width="2" stroke-miterlimit="10" />
    <path
      d="M-116.629 399.863C-61.9749 323.901 200.027 980.236 700.39 811.296C944.318 728.93 1134.07 404.527 1232.05 218.992C1340.88 12.9029 1548.61 -113.233 1716.57 -286.739"
      stroke="url(#paint19_linear_95_133)" stroke-width="2" stroke-miterlimit="10" />
    <path
      d="M-108.186 387.369C-50.6563 307.41 208.696 988.841 702.756 827.641C951.563 746.472 1140.47 411.021 1234.43 227.306C1342.3 16.3555 1554.45 -107.909 1724.19 -281.255"
      stroke="url(#paint20_linear_95_133)" stroke-width="2" stroke-miterlimit="10" />
    <path
      d="M-99.7489 374.87C-39.3383 290.906 217.439 997.63 705.103 843.996C958.825 764.063 1146.76 417.459 1236.79 235.632C1343.65 19.7606 1560.31 -102.593 1731.81 -275.771"
      stroke="url(#paint21_linear_95_133)" stroke-width="2" stroke-miterlimit="10" />
    <path
      d="M-91.3037 362.375C-28.0175 274.415 226.261 1006.61 707.46 860.356C966.129 781.734 1152.98 423.858 1239.16 243.961C1344.93 23.1028 1566.16 -97.2843 1739.44 -270.287"
      stroke="url(#paint22_linear_95_133)" stroke-width="2" stroke-miterlimit="10" />
    <path
      d="M-82.8686 349.875C-16.7068 257.918 235.142 1015.75 709.799 876.705C973.442 799.464 1159.1 430.184 1241.51 252.272C1346.14 26.4062 1572.01 -91.9606 1747.06 -264.802"
      stroke="url(#paint23_linear_95_133)" stroke-width="2" stroke-miterlimit="10" />
    <path
      d="M-74.4273 337.368C-5.38991 241.414 244.085 1025.06 712.157 893.045C980.804 817.267 1165.14 436.463 1243.88 260.588C1347.26 29.6567 1577.86 -86.6446 1754.68 -259.318"
      stroke="url(#paint24_linear_95_133)" stroke-width="2" stroke-miterlimit="10" />
    <path
      d="M-65.9821 324.873C5.93664 224.915 253.098 1034.55 714.52 909.397C988.195 835.171 1171.12 442.71 1246.25 268.91C1348.29 32.8563 1583.71 -81.3217 1762.3 -253.834"
      stroke="url(#paint25_linear_95_133)" stroke-width="2" stroke-miterlimit="10" />
    <path
      d="M-57.5461 312.373C17.2483 208.418 262.139 1044.19 716.867 925.752C995.613 853.143 1177 448.919 1248.62 277.226C1349.22 36.0201 1589.57 -76.0063 1769.92 -248.357"
      stroke="url(#paint26_linear_95_133)" stroke-width="2" stroke-miterlimit="10" />
    <path
      d="M-49.0975 299.871C28.5725 191.919 271.223 1053.98 719.219 942.099C1003.04 871.221 1182.8 455.098 1250.99 285.543C1350.05 39.1269 1595.42 -70.691 1777.54 -242.872"
      stroke="url(#paint27_linear_95_133)" stroke-width="2" stroke-miterlimit="10" />
    <path
      d="M-40.6655 287.379C39.8858 175.422 280.332 1063.93 721.568 958.454C1010.5 889.388 1188.55 461.243 1253.35 293.868C1350.77 42.2006 1601.27 -65.3667 1785.16 -237.389"
      stroke="url(#paint28_linear_95_133)" stroke-width="2" stroke-miterlimit="10" />
    <path
      d="M-32.2249 274.872C51.1963 158.926 289.474 1074 723.92 974.801C1017.96 907.661 1194.22 467.376 1255.71 302.183C1351.36 45.2358 1607.13 -60.0519 1792.78 -231.905"
      stroke="url(#paint29_linear_95_133)" stroke-width="2" stroke-miterlimit="10" />
    <path
      d="M-23.7793 262.377C62.5243 142.425 298.642 1084.22 726.269 991.155C1025.47 926.043 1199.81 473.487 1258.08 310.5C1351.83 48.2238 1612.97 -54.7341 1800.41 -226.421"
      stroke="url(#paint30_linear_95_133)" stroke-width="2" stroke-miterlimit="10" />
    <path
      d="M-15.3443 249.878C73.8327 125.932 307.829 1094.55 728.621 1007.5C1032.98 944.539 1205.34 479.577 1260.44 318.824C1352.16 51.1849 1618.83 -49.4188 1808.03 -220.936"
      stroke="url(#paint31_linear_95_133)" stroke-width="2" stroke-miterlimit="10" />
    <path
      d="M-6.90192 237.37C85.1489 109.43 317.019 1105.01 730.975 1023.85C1040.51 963.16 1210.83 485.661 1262.81 327.132C1352.35 54.109 1624.68 -44.0945 1815.65 -215.452"
      stroke="url(#paint32_linear_95_133)" stroke-width="2" stroke-miterlimit="10" />
    <path
      d="M1.53599 224.884C96.4659 92.9419 326.207 1115.61 733.331 1040.21C1048.06 981.922 1216.23 491.756 1265.18 335.463C1352.37 57.001 1630.53 -38.78 1823.27 -209.969"
      stroke="url(#paint33_linear_95_133)" stroke-width="2" stroke-miterlimit="10" />
    <path
      d="M9.97764 212.376C107.781 76.4397 335.399 1126.3 735.669 1056.56C1055.6 1000.81 1221.57 497.826 1267.54 343.773C1352.24 59.8591 1636.39 -33.4645 1830.89 -204.484"
      stroke="url(#paint34_linear_95_133)" stroke-width="2" stroke-miterlimit="10" />
    <path
      d="M18.4232 199.882C119.107 59.9436 344.6 1137.12 738.032 1072.91C1063.17 1019.86 1226.87 503.91 1269.91 352.104C1351.94 62.7086 1642.24 -28.1406 1838.52 -199"
      stroke="url(#paint35_linear_95_133)" stroke-width="2" stroke-miterlimit="10" />
    <path
      d="M26.8579 187.383C130.421 43.4421 353.76 1148.03 740.389 1089.25C1070.74 1039.04 1232.11 509.984 1272.28 360.413C1351.45 65.5229 1648.09 -22.8243 1846.14 -193.516"
      stroke="url(#paint36_linear_95_133)" stroke-width="2" stroke-miterlimit="10" />
    <path
      d="M35.2995 174.874C141.736 26.9392 362.913 1159.05 742.737 1105.61C1078.32 1058.38 1237.29 516.07 1274.64 368.728C1350.77 68.3153 1653.93 -17.5073 1853.76 -188.032"
      stroke="url(#paint37_linear_95_133)" stroke-width="2" stroke-miterlimit="10" />
    <path
      d="M43.744 162.381C153.06 10.4436 372.042 1170.17 745.09 1121.95C1085.89 1077.92 1242.42 522.182 1277 377.053C1349.89 71.1043 1659.79 -12.1914 1861.38 -182.548"
      stroke="url(#paint38_linear_95_133)" stroke-width="2" stroke-miterlimit="10" />
    <path
      d="M52.1791 149.883C164.371 -6.05023 381.132 1181.38 747.433 1138.32C1093.45 1097.63 1247.51 528.309 1279.37 385.378C1348.8 73.8768 1665.65 -6.87641 1869 -177.064"
      stroke="url(#paint39_linear_95_133)" stroke-width="2" stroke-miterlimit="10" />
    <path
      d="M60.6175 137.379C175.686 -22.5538 390.181 1192.68 749.787 1154.66C1101.01 1117.54 1252.53 534.459 1281.73 393.693C1347.48 76.6543 1671.5 -1.55348 1876.62 -171.587"
      stroke="url(#paint40_linear_95_133)" stroke-width="2" stroke-miterlimit="10" />
    <path
      d="M69.0632 124.882C187.009 -39.0494 399.199 1204.06 752.139 1171.01C1108.56 1137.63 1257.53 540.615 1284.1 402.01C1345.93 79.4281 1677.35 3.76263 1884.24 -166.102"
      stroke="url(#paint41_linear_95_133)" stroke-width="2" stroke-miterlimit="10" />
    <path
      d="M77.5024 112.38C198.326 -55.5509 408.16 1215.54 754.492 1187.36C1116.08 1157.94 1262.47 546.816 1286.46 410.327C1344.13 82.2128 1683.2 9.08645 1891.86 -160.617"
      stroke="url(#paint42_linear_95_133)" stroke-width="2" stroke-miterlimit="10" />
    <path
      d="M85.9493 99.8824C209.644 -72.0389 417.074 1227.08 756.849 1203.72C1123.6 1178.49 1267.38 553.06 1288.84 418.649C1342.07 85.0166 1689.06 14.4015 1899.49 -155.134"
      stroke="url(#paint43_linear_95_133)" stroke-width="2" stroke-miterlimit="10" />
    <path
      d="M94.3866 87.379C220.958 -88.5415 425.902 1238.71 759.201 1220.06C1131.07 1199.26 1272.24 559.333 1291.2 426.965C1339.75 87.8337 1694.9 19.7109 1907.11 -149.65"
      stroke="url(#paint44_linear_95_133)" stroke-width="2" stroke-miterlimit="10" />
    <path
      d="M102.819 74.8838C232.268 -105.035 434.667 1250.41 761.54 1236.41C1138.51 1220.28 1277.07 565.642 1293.56 435.284C1337.15 90.6896 1700.75 25.0346 1914.73 -144.166"
      stroke="url(#paint45_linear_95_133)" stroke-width="2" stroke-miterlimit="10" />
    <path
      d="M111.266 62.3869C243.592 -121.531 443.357 1262.17 763.902 1252.77C1145.92 1241.57 1281.86 572.015 1295.93 443.606C1334.27 93.5844 1706.61 30.3503 1922.35 -138.682"
      stroke="url(#paint46_linear_95_133)" stroke-width="2" stroke-miterlimit="10" />
    <path
      d="M119.704 49.8835C254.907 -138.034 451.948 1273.99 766.249 1269.12C1153.27 1263.11 1286.62 578.43 1298.3 451.922C1331.1 96.5327 1712.46 35.6737 1929.97 -133.198"
      stroke="url(#paint47_linear_95_133)" stroke-width="2" stroke-miterlimit="10" />
    <path
      d="M128.152 37.3869C266.232 -154.529 460.461 1285.88 768.611 1285.47C1160.57 1284.96 1291.34 584.91 1300.67 460.252C1327.63 99.5459 1718.31 40.9892 1937.6 -127.714"
      stroke="url(#paint48_linear_95_133)" stroke-width="2" stroke-miterlimit="10" />
    <path
      d="M136.591 24.8828C277.548 -171.032 468.858 1297.8 770.962 1301.81C1167.79 1307.07 1296.03 591.425 1303.03 468.555C1323.84 102.625 1724.17 46.3043 1945.22 -122.23"
      stroke="url(#paint49_linear_95_133)" stroke-width="2" stroke-miterlimit="10" />
    <path
      d="M145.027 12.3806C288.861 -187.533 477.149 1309.79 773.309 1318.16C1174.92 1329.51 1300.7 598.017 1305.4 476.871C1319.75 105.79 1730.02 51.6286 1952.84 -116.745"
      stroke="url(#paint50_linear_95_133)" stroke-width="2" stroke-miterlimit="10" />
    <path
      d="M153.469 -0.108966C300.181 -204.022 485.309 1321.83 775.666 1334.52C1181.97 1352.29 1305.35 604.702 1307.76 485.201C1315.34 109.051 1735.87 56.9376 1960.46 -111.262"
      stroke="url(#paint51_linear_95_133)" stroke-width="2" stroke-miterlimit="10" />
  </g>
  <defs>
    <linearGradient id="paint0_linear_95_133" x1="659.317" y1="-378.764" x2="632.484" y2="561.66"
      gradientUnits="userSpaceOnUse">
      <stop stop-color="#D65622" />
      <stop offset="0.05" stop-color="#D55725" />
      <stop offset="0.09" stop-color="#D25B2F" />
      <stop offset="0.13" stop-color="#CC6341" />
      <stop offset="0.17" stop-color="#C56E59" />
      <stop offset="0.2" stop-color="#BC7C79" />
      <stop offset="0.24" stop-color="#B18DA0" />
      <stop offset="0.27" stop-color="#A4A0CD" />
      <stop offset="0.28" stop-color="#9EAAE3" />
    </linearGradient>
    <linearGradient id="paint1_linear_95_133" x1="667.021" y1="-372.196" x2="640.305" y2="564.12"
      gradientUnits="userSpaceOnUse">
      <stop stop-color="#D55826" />
      <stop offset="0.05" stop-color="#D45929" />
      <stop offset="0.09" stop-color="#D15D33" />
      <stop offset="0.13" stop-color="#CC6545" />
      <stop offset="0.17" stop-color="#C5705D" />
      <stop offset="0.2" stop-color="#BC7D7D" />
      <stop offset="0.24" stop-color="#B18EA4" />
      <stop offset="0.27" stop-color="#A4A2D1" />
      <stop offset="0.28" stop-color="#9FAAE4" />
      <stop offset="0.42" stop-color="#9FAAE4" />
      <stop offset="1" stop-color="#9FA8DF" />
    </linearGradient>
    <linearGradient id="paint2_linear_95_133" x1="674.785" y1="-365.628" x2="648.152" y2="567.766"
      gradientUnits="userSpaceOnUse">
      <stop stop-color="#D55A2B" />
      <stop offset="0.05" stop-color="#D45B2E" />
      <stop offset="0.09" stop-color="#D05F38" />
      <stop offset="0.13" stop-color="#CB674A" />
      <stop offset="0.17" stop-color="#C47262" />
      <stop offset="0.21" stop-color="#BB7F82" />
      <stop offset="0.24" stop-color="#B090A9" />
      <stop offset="0.28" stop-color="#9FAAE4" />
      <stop offset="0.42" stop-color="#9FAAE4" />
      <stop offset="1" stop-color="#A0A7DB" />
    </linearGradient>
    <linearGradient id="paint3_linear_95_133" x1="682.557" y1="-359.06" x2="655.976" y2="572.539"
      gradientUnits="userSpaceOnUse">
      <stop stop-color="#D45B2F" />
      <stop offset="0.05" stop-color="#D35C32" />
      <stop offset="0.09" stop-color="#D0603C" />
      <stop offset="0.13" stop-color="#CB684E" />
      <stop offset="0.17" stop-color="#C47366" />
      <stop offset="0.21" stop-color="#BA8186" />
      <stop offset="0.24" stop-color="#AF91AD" />
      <stop offset="0.28" stop-color="#A0AAE5" />
      <stop offset="0.42" stop-color="#A0AAE5" />
      <stop offset="1" stop-color="#A1A5D8" />
    </linearGradient>
    <linearGradient id="paint4_linear_95_133" x1="690.321" y1="-352.491" x2="663.76" y2="578.377"
      gradientUnits="userSpaceOnUse">
      <stop stop-color="#D45D33" />
      <stop offset="0.05" stop-color="#D35E36" />
      <stop offset="0.09" stop-color="#CF6340" />
      <stop offset="0.13" stop-color="#CA6A52" />
      <stop offset="0.17" stop-color="#C3756A" />
      <stop offset="0.21" stop-color="#BA838A" />
      <stop offset="0.24" stop-color="#AF94B1" />
      <stop offset="0.28" stop-color="#A0ABE5" />
      <stop offset="0.42" stop-color="#A0ABE5" />
      <stop offset="1" stop-color="#A2A3D4" />
    </linearGradient>
    <linearGradient id="paint5_linear_95_133" x1="698.092" y1="-345.923" x2="671.523" y2="585.237"
      gradientUnits="userSpaceOnUse">
      <stop stop-color="#D35F37" />
      <stop offset="0.05" stop-color="#D2603A" />
      <stop offset="0.09" stop-color="#CF6444" />
      <stop offset="0.13" stop-color="#CA6C56" />
      <stop offset="0.17" stop-color="#C3776E" />
      <stop offset="0.21" stop-color="#B9858E" />
      <stop offset="0.25" stop-color="#AE95B5" />
      <stop offset="0.28" stop-color="#A1ABE6" />
      <stop offset="0.42" stop-color="#A1ABE6" />
      <stop offset="1" stop-color="#A3A2D0" />
    </linearGradient>
    <linearGradient id="paint6_linear_95_133" x1="705.857" y1="-339.354" x2="679.253" y2="593.033"
      gradientUnits="userSpaceOnUse">
      <stop stop-color="#D3613C" />
      <stop offset="0.05" stop-color="#D2623F" />
      <stop offset="0.1" stop-color="#CF6649" />
      <stop offset="0.14" stop-color="#CA6E5B" />
      <stop offset="0.18" stop-color="#C27973" />
      <stop offset="0.21" stop-color="#B98793" />
      <stop offset="0.25" stop-color="#AE97B9" />
      <stop offset="0.28" stop-color="#A2ABE6" />
      <stop offset="0.42" stop-color="#A2ABE6" />
      <stop offset="1" stop-color="#A5A0CC" />
    </linearGradient>
    <linearGradient id="paint7_linear_95_133" x1="713.628" y1="-332.786" x2="686.964" y2="601.715"
      gradientUnits="userSpaceOnUse">
      <stop stop-color="#D26340" />
      <stop offset="0.05" stop-color="#D16443" />
      <stop offset="0.1" stop-color="#CE684D" />
      <stop offset="0.14" stop-color="#C9705F" />
      <stop offset="0.18" stop-color="#C17B77" />
      <stop offset="0.21" stop-color="#B88897" />
      <stop offset="0.25" stop-color="#AD99BD" />
      <stop offset="0.28" stop-color="#A2ABE7" />
      <stop offset="0.42" stop-color="#A2ABE7" />
      <stop offset="1" stop-color="#A69EC9" />
    </linearGradient>
    <linearGradient id="paint8_linear_95_133" x1="721.392" y1="-326.217" x2="694.645" y2="611.206"
      gradientUnits="userSpaceOnUse">
      <stop stop-color="#D26444" />
      <stop offset="0.05" stop-color="#D16547" />
      <stop offset="0.1" stop-color="#CE6951" />
      <stop offset="0.14" stop-color="#C97163" />
      <stop offset="0.18" stop-color="#C17C7B" />
      <stop offset="0.22" stop-color="#B88A9B" />
      <stop offset="0.25" stop-color="#AD9AC1" />
      <stop offset="0.28" stop-color="#A3ABE7" />
      <stop offset="0.42" stop-color="#A3ABE7" />
      <stop offset="1" stop-color="#A79DC5" />
    </linearGradient>
    <linearGradient id="paint9_linear_95_133" x1="729.164" y1="-319.648" x2="702.31" y2="621.445"
      gradientUnits="userSpaceOnUse">
      <stop stop-color="#D16649" />
      <stop offset="0.05" stop-color="#D0674C" />
      <stop offset="0.1" stop-color="#CD6B56" />
      <stop offset="0.14" stop-color="#C77368" />
      <stop offset="0.18" stop-color="#C07E80" />
      <stop offset="0.22" stop-color="#B78BA0" />
      <stop offset="0.26" stop-color="#AC9CC6" />
      <stop offset="0.28" stop-color="#A3ABE8" />
      <stop offset="0.42" stop-color="#A3ABE8" />
      <stop offset="1" stop-color="#A89BC1" />
    </linearGradient>
    <linearGradient id="paint10_linear_95_133" x1="736.929" y1="-313.08" x2="709.955" y2="632.362"
      gradientUnits="userSpaceOnUse">
      <stop stop-color="#D1684D" />
      <stop offset="0.05" stop-color="#D06950" />
      <stop offset="0.1" stop-color="#CD6E5A" />
      <stop offset="0.14" stop-color="#C7756C" />
      <stop offset="0.18" stop-color="#C08084" />
      <stop offset="0.22" stop-color="#B78EA4" />
      <stop offset="0.26" stop-color="#AC9FCA" />
      <stop offset="0.28" stop-color="#A4ACE8" />
      <stop offset="0.42" stop-color="#A4ACE8" />
      <stop offset="1" stop-color="#A99ABD" />
    </linearGradient>
    <linearGradient id="paint11_linear_95_133" x1="744.7" y1="-306.511" x2="717.58" y2="643.915"
      gradientUnits="userSpaceOnUse">
      <stop stop-color="#D06A51" />
      <stop offset="0.05" stop-color="#CF6B54" />
      <stop offset="0.1" stop-color="#CC6F5E" />
      <stop offset="0.14" stop-color="#C67770" />
      <stop offset="0.18" stop-color="#BF8288" />
      <stop offset="0.22" stop-color="#B690A8" />
      <stop offset="0.26" stop-color="#ABA0CE" />
      <stop offset="0.28" stop-color="#A4ACE9" />
      <stop offset="0.42" stop-color="#A4ACE9" />
      <stop offset="1" stop-color="#AA98B9" />
    </linearGradient>
    <linearGradient id="paint12_linear_95_133" x1="752.465" y1="-299.943" x2="725.187" y2="656.031"
      gradientUnits="userSpaceOnUse">
      <stop stop-color="#D06C56" />
      <stop offset="0.06" stop-color="#CF6D59" />
      <stop offset="0.1" stop-color="#CB7163" />
      <stop offset="0.15" stop-color="#C67975" />
      <stop offset="0.19" stop-color="#BF848D" />
      <stop offset="0.23" stop-color="#B692AD" />
      <stop offset="0.27" stop-color="#ABA2D3" />
      <stop offset="0.28" stop-color="#A5ACE9" />
      <stop offset="0.42" stop-color="#A5ACE9" />
      <stop offset="1" stop-color="#AB96B6" />
    </linearGradient>
    <linearGradient id="paint13_linear_95_133" x1="760.229" y1="-293.375" x2="732.781" y2="668.653"
      gradientUnits="userSpaceOnUse">
      <stop stop-color="#CF6D5A" />
      <stop offset="0.06" stop-color="#CE6E5D" />
      <stop offset="0.1" stop-color="#CB7367" />
      <stop offset="0.15" stop-color="#C67A79" />
      <stop offset="0.19" stop-color="#BF8591" />
      <stop offset="0.23" stop-color="#B693B1" />
      <stop offset="0.27" stop-color="#ABA4D7" />
      <stop offset="0.28" stop-color="#A6ACEA" />
      <stop offset="0.42" stop-color="#A6ACEA" />
      <stop offset="1" stop-color="#AC95B2" />
    </linearGradient>
    <linearGradient id="paint14_linear_95_133" x1="768" y1="-286.806" x2="740.362" y2="681.759"
      gradientUnits="userSpaceOnUse">
      <stop stop-color="#CF6F5E" />
      <stop offset="0.06" stop-color="#CE7061" />
      <stop offset="0.1" stop-color="#CA746B" />
      <stop offset="0.15" stop-color="#C57C7D" />
      <stop offset="0.19" stop-color="#BE8795" />
      <stop offset="0.23" stop-color="#B595B5" />
      <stop offset="0.27" stop-color="#AAA5DB" />
      <stop offset="0.28" stop-color="#A6ACEA" />
      <stop offset="0.42" stop-color="#A6ACEA" />
      <stop offset="1" stop-color="#AD93AE" />
    </linearGradient>
    <linearGradient id="paint15_linear_95_133" x1="775.766" y1="-280.238" x2="747.929" y2="695.273"
      gradientUnits="userSpaceOnUse">
      <stop stop-color="#CE7162" />
      <stop offset="0.06" stop-color="#CD7265" />
      <stop offset="0.11" stop-color="#CA766F" />
      <stop offset="0.15" stop-color="#C57E81" />
      <stop offset="0.19" stop-color="#BE8999" />
      <stop offset="0.23" stop-color="#B596B9" />
      <stop offset="0.27" stop-color="#AAA7DF" />
      <stop offset="0.28" stop-color="#A7ACEB" />
      <stop offset="0.42" stop-color="#A7ACEB" />
      <stop offset="1" stop-color="#AE91AA" />
    </linearGradient>
    <linearGradient id="paint16_linear_95_133" x1="783.535" y1="-273.668" x2="755.493" y2="709.173"
      gradientUnits="userSpaceOnUse">
      <stop stop-color="#CE7367" />
      <stop offset="0.06" stop-color="#CD746A" />
      <stop offset="0.11" stop-color="#C97974" />
      <stop offset="0.15" stop-color="#C48086" />
      <stop offset="0.2" stop-color="#BD8B9E" />
      <stop offset="0.24" stop-color="#B499BE" />
      <stop offset="0.28" stop-color="#A7ADEB" />
      <stop offset="0.42" stop-color="#A7ADEB" />
      <stop offset="1" stop-color="#B090A6" />
    </linearGradient>
    <linearGradient id="paint17_linear_95_133" x1="791.3" y1="-267.101" x2="763.041" y2="723.408"
      gradientUnits="userSpaceOnUse">
      <stop stop-color="#CD756B" />
      <stop offset="0.06" stop-color="#CC766E" />
      <stop offset="0.11" stop-color="#C97A78" />
      <stop offset="0.15" stop-color="#C4828A" />
      <stop offset="0.2" stop-color="#BD8DA2" />
      <stop offset="0.24" stop-color="#B39AC2" />
      <stop offset="0.28" stop-color="#A8ADEC" />
      <stop offset="0.42" stop-color="#A8ADEC" />
      <stop offset="1" stop-color="#B18EA3" />
    </linearGradient>
    <linearGradient id="paint18_linear_95_133" x1="799.072" y1="-260.532" x2="770.581" y2="737.96"
      gradientUnits="userSpaceOnUse">
      <stop stop-color="#CD766F" />
      <stop offset="0.06" stop-color="#CC7772" />
      <stop offset="0.11" stop-color="#C97C7C" />
      <stop offset="0.16" stop-color="#C4838E" />
      <stop offset="0.2" stop-color="#BC8EA6" />
      <stop offset="0.24" stop-color="#B39CC6" />
      <stop offset="0.28" stop-color="#A9ADEC" />
      <stop offset="0.42" stop-color="#A9ADEC" />
      <stop offset="1" stop-color="#B28C9F" />
    </linearGradient>
    <linearGradient id="paint19_linear_95_133" x1="806.837" y1="-253.964" x2="778.109" y2="752.781"
      gradientUnits="userSpaceOnUse">
      <stop stop-color="#CC7874" />
      <stop offset="0.06" stop-color="#CB7977" />
      <stop offset="0.11" stop-color="#C87E81" />
      <stop offset="0.16" stop-color="#C28593" />
      <stop offset="0.2" stop-color="#BB90AB" />
      <stop offset="0.25" stop-color="#B29ECB" />
      <stop offset="0.28" stop-color="#A9ADED" />
      <stop offset="0.42" stop-color="#A9ADED" />
      <stop offset="1" stop-color="#B38B9B" />
    </linearGradient>
    <linearGradient id="paint20_linear_95_133" x1="814.607" y1="-247.395" x2="785.639" y2="767.845"
      gradientUnits="userSpaceOnUse">
      <stop stop-color="#CC7A78" />
      <stop offset="0.06" stop-color="#CB7B7B" />
      <stop offset="0.11" stop-color="#C87F85" />
      <stop offset="0.16" stop-color="#C28797" />
      <stop offset="0.21" stop-color="#BB92AF" />
      <stop offset="0.25" stop-color="#B29FCF" />
      <stop offset="0.28" stop-color="#AAADED" />
      <stop offset="0.42" stop-color="#AAADED" />
      <stop offset="1" stop-color="#B48997" />
    </linearGradient>
    <linearGradient id="paint21_linear_95_133" x1="822.372" y1="-240.827" x2="793.157" y2="783.128"
      gradientUnits="userSpaceOnUse">
      <stop stop-color="#CB7C7C" />
      <stop offset="0.06" stop-color="#CA7D7F" />
      <stop offset="0.11" stop-color="#C78189" />
      <stop offset="0.16" stop-color="#C1899B" />
      <stop offset="0.21" stop-color="#BA93B3" />
      <stop offset="0.25" stop-color="#B1A1D3" />
      <stop offset="0.28" stop-color="#AAADEE" />
      <stop offset="0.42" stop-color="#AAADEE" />
      <stop offset="1" stop-color="#B58794" />
    </linearGradient>
    <linearGradient id="paint22_linear_95_133" x1="830.144" y1="-234.258" x2="800.675" y2="798.613"
      gradientUnits="userSpaceOnUse">
      <stop stop-color="#CB7E80" />
      <stop offset="0.06" stop-color="#CA7F83" />
      <stop offset="0.12" stop-color="#C7838D" />
      <stop offset="0.16" stop-color="#C18B9F" />
      <stop offset="0.21" stop-color="#BA95B7" />
      <stop offset="0.26" stop-color="#B1A3D7" />
      <stop offset="0.28" stop-color="#ABADEE" />
      <stop offset="0.42" stop-color="#ABADEE" />
      <stop offset="0.98" stop-color="#B58793" />
      <stop offset="1" stop-color="#B68690" />
    </linearGradient>
    <linearGradient id="paint23_linear_95_133" x1="837.908" y1="-227.69" x2="808.176" y2="814.28"
      gradientUnits="userSpaceOnUse">
      <stop stop-color="#CA7F85" />
      <stop offset="0.06" stop-color="#C98088" />
      <stop offset="0.12" stop-color="#C68592" />
      <stop offset="0.17" stop-color="#C18CA4" />
      <stop offset="0.22" stop-color="#BA97BC" />
      <stop offset="0.26" stop-color="#B1A5DC" />
      <stop offset="0.28" stop-color="#ACAEEF" />
      <stop offset="0.42" stop-color="#ACAEEF" />
      <stop offset="0.95" stop-color="#B68794" />
      <stop offset="1" stop-color="#B7848C" />
    </linearGradient>
    <linearGradient id="paint24_linear_95_133" x1="845.679" y1="-221.121" x2="815.682" y2="830.108"
      gradientUnits="userSpaceOnUse">
      <stop stop-color="#CA8189" />
      <stop offset="0.06" stop-color="#C9828C" />
      <stop offset="0.12" stop-color="#C58796" />
      <stop offset="0.17" stop-color="#C08EA8" />
      <stop offset="0.22" stop-color="#B999C0" />
      <stop offset="0.27" stop-color="#B0A7E0" />
      <stop offset="0.28" stop-color="#ACAEEF" />
      <stop offset="0.42" stop-color="#ACAEEF" />
      <stop offset="0.93" stop-color="#B68794" />
      <stop offset="1" stop-color="#B88288" />
    </linearGradient>
    <linearGradient id="paint25_linear_95_133" x1="853.444" y1="-214.553" x2="823.184" y2="846.062"
      gradientUnits="userSpaceOnUse">
      <stop stop-color="#C9838D" />
      <stop offset="0.07" stop-color="#C88490" />
      <stop offset="0.12" stop-color="#C5889A" />
      <stop offset="0.17" stop-color="#C090AC" />
      <stop offset="0.22" stop-color="#B99BC4" />
      <stop offset="0.27" stop-color="#B0A8E4" />
      <stop offset="0.28" stop-color="#ADAEF0" />
      <stop offset="0.42" stop-color="#ADAEF0" />
      <stop offset="0.91" stop-color="#B78895" />
      <stop offset="1" stop-color="#B98184" />
    </linearGradient>
    <linearGradient id="paint26_linear_95_133" x1="861.215" y1="-207.978" x2="830.678" y2="862.156"
      gradientUnits="userSpaceOnUse">
      <stop stop-color="#C98592" />
      <stop offset="0.07" stop-color="#C88695" />
      <stop offset="0.12" stop-color="#C48A9F" />
      <stop offset="0.18" stop-color="#BF92B1" />
      <stop offset="0.23" stop-color="#B89DC9" />
      <stop offset="0.27" stop-color="#AFABE9" />
      <stop offset="0.28" stop-color="#ADAEF0" />
      <stop offset="0.42" stop-color="#ADAEF0" />
      <stop offset="0.9" stop-color="#B88795" />
      <stop offset="1" stop-color="#BB7F81" />
    </linearGradient>
    <linearGradient id="paint27_linear_95_133" x1="868.979" y1="-201.409" x2="838.171" y2="878.346"
      gradientUnits="userSpaceOnUse">
      <stop stop-color="#C88796" />
      <stop offset="0.07" stop-color="#C78899" />
      <stop offset="0.13" stop-color="#C48CA3" />
      <stop offset="0.18" stop-color="#BF94B5" />
      <stop offset="0.23" stop-color="#B89ECD" />
      <stop offset="0.28" stop-color="#AEAEF1" />
      <stop offset="0.42" stop-color="#AEAEF1" />
      <stop offset="0.88" stop-color="#B88896" />
      <stop offset="1" stop-color="#BC7E7D" />
    </linearGradient>
    <linearGradient id="paint28_linear_95_133" x1="876.751" y1="-194.84" x2="845.662" y2="894.653"
      gradientUnits="userSpaceOnUse">
      <stop stop-color="#C8899A" />
      <stop offset="0.07" stop-color="#C78A9D" />
      <stop offset="0.13" stop-color="#C38EA7" />
      <stop offset="0.18" stop-color="#BE96B9" />
      <stop offset="0.23" stop-color="#B7A0D1" />
      <stop offset="0.28" stop-color="#AEAEF1" />
      <stop offset="0.42" stop-color="#AEAEF1" />
      <stop offset="0.86" stop-color="#B98896" />
      <stop offset="1" stop-color="#BD7C79" />
    </linearGradient>
    <linearGradient id="paint29_linear_95_133" x1="884.515" y1="-188.272" x2="853.147" y2="911.042"
      gradientUnits="userSpaceOnUse">
      <stop stop-color="#C78A9F" />
      <stop offset="0.07" stop-color="#C68BA2" />
      <stop offset="0.13" stop-color="#C390AC" />
      <stop offset="0.19" stop-color="#BD97BE" />
      <stop offset="0.24" stop-color="#B6A2D6" />
      <stop offset="0.28" stop-color="#AFAFF2" />
      <stop offset="0.42" stop-color="#AFAFF2" />
      <stop offset="0.84" stop-color="#B98897" />
      <stop offset="1" stop-color="#BE7A75" />
    </linearGradient>
    <linearGradient id="paint30_linear_95_133" x1="892.287" y1="-181.703" x2="860.639" y2="927.504"
      gradientUnits="userSpaceOnUse">
      <stop stop-color="#C78CA3" />
      <stop offset="0.07" stop-color="#C68DA6" />
      <stop offset="0.13" stop-color="#C392B0" />
      <stop offset="0.19" stop-color="#BD99C2" />
      <stop offset="0.24" stop-color="#B6A4DA" />
      <stop offset="0.28" stop-color="#B0AFF2" />
      <stop offset="0.42" stop-color="#B0AFF2" />
      <stop offset="0.83" stop-color="#BA8997" />
      <stop offset="1" stop-color="#BF7971" />
    </linearGradient>
    <linearGradient id="paint31_linear_95_133" x1="900.051" y1="-175.134" x2="868.119" y2="944.046"
      gradientUnits="userSpaceOnUse">
      <stop stop-color="#C68EA7" />
      <stop offset="0.07" stop-color="#C58FAA" />
      <stop offset="0.14" stop-color="#C293B4" />
      <stop offset="0.19" stop-color="#BC9BC6" />
      <stop offset="0.25" stop-color="#B5A6DE" />
      <stop offset="0.28" stop-color="#B0AFF3" />
      <stop offset="0.42" stop-color="#B0AFF3" />
      <stop offset="0.82" stop-color="#BA8898" />
      <stop offset="1" stop-color="#C0776E" />
    </linearGradient>
    <linearGradient id="paint32_linear_95_133" x1="907.823" y1="-168.566" x2="875.605" y2="960.651"
      gradientUnits="userSpaceOnUse">
      <stop stop-color="#C690AB" />
      <stop offset="0.08" stop-color="#C591AE" />
      <stop offset="0.14" stop-color="#C295B8" />
      <stop offset="0.2" stop-color="#BC9DCA" />
      <stop offset="0.25" stop-color="#B5A7E2" />
      <stop offset="0.28" stop-color="#B1AFF3" />
      <stop offset="0.42" stop-color="#B1AFF3" />
      <stop offset="0.81" stop-color="#BB8898" />
      <stop offset="1" stop-color="#C1756A" />
    </linearGradient>
    <linearGradient id="paint33_linear_95_133" x1="915.587" y1="-161.998" x2="883.08" y2="977.307"
      gradientUnits="userSpaceOnUse">
      <stop stop-color="#C592B0" />
      <stop offset="0.08" stop-color="#C493B3" />
      <stop offset="0.14" stop-color="#C097BD" />
      <stop offset="0.2" stop-color="#BB9FCF" />
      <stop offset="0.26" stop-color="#B4A9E7" />
      <stop offset="0.28" stop-color="#B1AFF4" />
      <stop offset="0.42" stop-color="#B1AFF4" />
      <stop offset="0.79" stop-color="#BB8999" />
      <stop offset="1" stop-color="#C27466" />
    </linearGradient>
    <linearGradient id="paint34_linear_95_133" x1="923.357" y1="-155.422" x2="890.557" y2="994.026"
      gradientUnits="userSpaceOnUse">
      <stop stop-color="#C593B4" />
      <stop offset="0.08" stop-color="#C494B7" />
      <stop offset="0.15" stop-color="#C098C1" />
      <stop offset="0.21" stop-color="#BBA0D3" />
      <stop offset="0.27" stop-color="#B4ABEB" />
      <stop offset="0.28" stop-color="#B2AFF4" />
      <stop offset="0.42" stop-color="#B2AFF4" />
      <stop offset="0.78" stop-color="#BC8999" />
      <stop offset="1" stop-color="#C37262" />
    </linearGradient>
    <linearGradient id="paint35_linear_95_133" x1="931.123" y1="-148.853" x2="898.033" y2="1010.78"
      gradientUnits="userSpaceOnUse">
      <stop stop-color="#C495B8" />
      <stop offset="0.08" stop-color="#C396BB" />
      <stop offset="0.15" stop-color="#C09AC5" />
      <stop offset="0.21" stop-color="#BBA2D7" />
      <stop offset="0.27" stop-color="#B4ACEF" />
      <stop offset="0.28" stop-color="#B3AFF5" />
      <stop offset="0.42" stop-color="#B3AFF5" />
      <stop offset="0.78" stop-color="#BD899A" />
      <stop offset="1" stop-color="#C4705F" />
    </linearGradient>
    <linearGradient id="paint36_linear_95_133" x1="938.893" y1="-142.285" x2="905.511" y2="1027.57"
      gradientUnits="userSpaceOnUse">
      <stop stop-color="#C497BD" />
      <stop offset="0.08" stop-color="#C298C0" />
      <stop offset="0.15" stop-color="#BF9DCA" />
      <stop offset="0.22" stop-color="#BAA4DC" />
      <stop offset="0.28" stop-color="#B3B0F5" />
      <stop offset="0.42" stop-color="#B3B0F5" />
      <stop offset="0.77" stop-color="#BE899A" />
      <stop offset="1" stop-color="#C66F5B" />
    </linearGradient>
    <linearGradient id="paint37_linear_95_133" x1="946.658" y1="-135.716" x2="912.985" y2="1044.39"
      gradientUnits="userSpaceOnUse">
      <stop stop-color="#C399C1" />
      <stop offset="0.09" stop-color="#C29AC4" />
      <stop offset="0.16" stop-color="#BF9ECE" />
      <stop offset="0.23" stop-color="#BAA6E0" />
      <stop offset="0.28" stop-color="#B4B0F6" />
      <stop offset="0.42" stop-color="#B4B0F6" />
      <stop offset="0.76" stop-color="#BE899B" />
      <stop offset="1" stop-color="#C76D57" />
    </linearGradient>
    <linearGradient id="paint38_linear_95_133" x1="954.429" y1="-129.148" x2="920.462" y2="1061.26"
      gradientUnits="userSpaceOnUse">
      <stop stop-color="#C39BC5" />
      <stop offset="0.09" stop-color="#C19CC8" />
      <stop offset="0.16" stop-color="#BEA0D2" />
      <stop offset="0.23" stop-color="#B9A8E4" />
      <stop offset="0.28" stop-color="#B4B0F6" />
      <stop offset="0.42" stop-color="#B4B0F6" />
      <stop offset="0.75" stop-color="#BF899B" />
      <stop offset="1" stop-color="#C86B53" />
    </linearGradient>
    <linearGradient id="paint39_linear_95_133" x1="962.194" y1="-122.579" x2="927.936" y2="1078.14"
      gradientUnits="userSpaceOnUse">
      <stop stop-color="#C29CC9" />
      <stop offset="0.09" stop-color="#C19DCC" />
      <stop offset="0.17" stop-color="#BEA1D6" />
      <stop offset="0.24" stop-color="#B9A9E8" />
      <stop offset="0.28" stop-color="#B5B0F7" />
      <stop offset="0.42" stop-color="#B5B0F7" />
      <stop offset="0.74" stop-color="#BF8A9C" />
      <stop offset="1" stop-color="#C96A4F" />
    </linearGradient>
    <linearGradient id="paint40_linear_95_133" x1="969.966" y1="-116.004" x2="935.408" y2="1095.06"
      gradientUnits="userSpaceOnUse">
      <stop stop-color="#C29ECE" />
      <stop offset="0.1" stop-color="#C19FD1" />
      <stop offset="0.18" stop-color="#BDA4DB" />
      <stop offset="0.25" stop-color="#B8ABED" />
      <stop offset="0.28" stop-color="#B6B0F7" />
      <stop offset="0.42" stop-color="#B6B0F7" />
      <stop offset="0.73" stop-color="#C0899C" />
      <stop offset="1" stop-color="#CA684C" />
    </linearGradient>
    <linearGradient id="paint41_linear_95_133" x1="977.73" y1="-109.436" x2="942.876" y2="1112.01"
      gradientUnits="userSpaceOnUse">
      <stop stop-color="#C1A0D2" />
      <stop offset="0.1" stop-color="#C0A1D5" />
      <stop offset="0.18" stop-color="#BDA5DF" />
      <stop offset="0.26" stop-color="#B7ADF1" />
      <stop offset="0.28" stop-color="#B6B0F8" />
      <stop offset="0.42" stop-color="#B6B0F8" />
      <stop offset="0.72" stop-color="#C08A9D" />
      <stop offset="1" stop-color="#CB6648" />
    </linearGradient>
    <linearGradient id="paint42_linear_95_133" x1="985.501" y1="-102.866" x2="950.352" y2="1129.02"
      gradientUnits="userSpaceOnUse">
      <stop stop-color="#C1A2D6" />
      <stop offset="0.1" stop-color="#C0A3D9" />
      <stop offset="0.19" stop-color="#BCA8E3" />
      <stop offset="0.27" stop-color="#B7AFF5" />
      <stop offset="0.28" stop-color="#B7B1F8" />
      <stop offset="0.42" stop-color="#B7B1F8" />
      <stop offset="0.72" stop-color="#C18A9D" />
      <stop offset="1" stop-color="#CC6544" />
    </linearGradient>
    <linearGradient id="paint43_linear_95_133" x1="993.266" y1="-96.2985" x2="957.816" y2="1146.07"
      gradientUnits="userSpaceOnUse">
      <stop stop-color="#C0A4DB" />
      <stop offset="0.11" stop-color="#BEA5DE" />
      <stop offset="0.2" stop-color="#BBA9E8" />
      <stop offset="0.28" stop-color="#B7B1F9" />
      <stop offset="0.42" stop-color="#B7B1F9" />
      <stop offset="0.71" stop-color="#C18A9E" />
      <stop offset="1" stop-color="#CD6340" />
    </linearGradient>
    <linearGradient id="paint44_linear_95_133" x1="1001.04" y1="-89.7296" x2="965.288" y2="1163.19"
      gradientUnits="userSpaceOnUse">
      <stop stop-color="#C0A5DF" />
      <stop offset="0.12" stop-color="#BEA6E2" />
      <stop offset="0.22" stop-color="#BBABEC" />
      <stop offset="0.28" stop-color="#B8B1F9" />
      <stop offset="0.42" stop-color="#B8B1F9" />
      <stop offset="0.71" stop-color="#C28A9D" />
      <stop offset="1" stop-color="#CE623C" />
    </linearGradient>
    <linearGradient id="paint45_linear_95_133" x1="1008.8" y1="-83.1545" x2="972.752" y2="1180.35"
      gradientUnits="userSpaceOnUse">
      <stop stop-color="#BFA7E3" />
      <stop offset="0.12" stop-color="#BDA8E6" />
      <stop offset="0.23" stop-color="#BAACF0" />
      <stop offset="0.28" stop-color="#B8B1FA" />
      <stop offset="0.42" stop-color="#B8B1FA" />
      <stop offset="0.7" stop-color="#C28A9E" />
      <stop offset="1" stop-color="#CF6039" />
    </linearGradient>
    <linearGradient id="paint46_linear_95_133" x1="1016.87" y1="-86.9569" x2="980.217" y2="1197.59"
      gradientUnits="userSpaceOnUse">
      <stop stop-color="#BFA9E8" />
      <stop offset="0.14" stop-color="#BDAAEB" />
      <stop offset="0.25" stop-color="#BAAFF5" />
      <stop offset="0.28" stop-color="#B9B1FA" />
      <stop offset="0.42" stop-color="#B9B1FA" />
      <stop offset="0.7" stop-color="#C48A9E" />
      <stop offset="1" stop-color="#D15E35" />
    </linearGradient>
    <linearGradient id="paint47_linear_95_133" x1="1025.16" y1="-98.7044" x2="987.671" y2="1214.9"
      gradientUnits="userSpaceOnUse">
      <stop stop-color="#BEABEC" />
      <stop offset="0.15" stop-color="#BDACEF" />
      <stop offset="0.27" stop-color="#BAB0F9" />
      <stop offset="0.28" stop-color="#BAB1FB" />
      <stop offset="0.42" stop-color="#BAB1FB" />
      <stop offset="0.69" stop-color="#C48A9F" />
      <stop offset="1" stop-color="#D25D31" />
    </linearGradient>
    <linearGradient id="paint48_linear_95_133" x1="1033.45" y1="-110.444" x2="995.137" y2="1232.28"
      gradientUnits="userSpaceOnUse">
      <stop stop-color="#BEADF0" />
      <stop offset="0.17" stop-color="#BCAEF3" />
      <stop offset="0.28" stop-color="#BAB2FB" />
      <stop offset="0.42" stop-color="#BAB2FB" />
      <stop offset="0.68" stop-color="#C58B9F" />
      <stop offset="1" stop-color="#D35B2D" />
    </linearGradient>
    <linearGradient id="paint49_linear_95_133" x1="1041.74" y1="-122.191" x2="1002.59" y2="1249.72"
      gradientUnits="userSpaceOnUse">
      <stop stop-color="#BDAEF4" />
      <stop offset="0.19" stop-color="#BCAFF7" />
      <stop offset="0.28" stop-color="#BBB2FC" />
      <stop offset="0.42" stop-color="#BBB2FC" />
      <stop offset="0.68" stop-color="#C58BA0" />
      <stop offset="1" stop-color="#D4592A" />
    </linearGradient>
    <linearGradient id="paint50_linear_95_133" x1="1050.03" y1="-133.938" x2="1010.05" y2="1267.26"
      gradientUnits="userSpaceOnUse">
      <stop stop-color="#BDB0F9" />
      <stop offset="0.28" stop-color="#BBB2FC" />
      <stop offset="0.42" stop-color="#BBB2FC" />
      <stop offset="0.67" stop-color="#C68BA0" />
      <stop offset="1" stop-color="#D55826" />
    </linearGradient>
    <linearGradient id="paint51_linear_95_133" x1="1058.32" y1="-145.686" x2="1017.5" y2="1284.88"
      gradientUnits="userSpaceOnUse">
      <stop offset="0.42" stop-color="#BCB2FD" />
      <stop offset="0.67" stop-color="#C68BA1" />
      <stop offset="1" stop-color="#D65622" />
    </linearGradient>
    <clipPath id="clip0_95_133">
      <rect width="1710" height="1025" fill="white" />
    </clipPath>
  </defs>
</svg>